name D:\school\WTK\thesis\model\3dpredictsim\Results\batch_tmt_lin\Pog_s1_tmt_bCst_d05_k1000_ig24_act_TTCM.mot
datacolumns 128
datarows 4
range 0.60833974 0.64484012
endheader
time	pelvis_tilt	pelvis_list	pelvis_rotation	pelvis_tx	pelvis_ty	pelvis_tz	hip_flexion_l	hip_adduction_l	hip_rotation_l	hip_flexion_r	hip_adduction_r	hip_rotation_r	knee_angle_l	knee_angle_r	ankle_angle_l	ankle_angle_r	subtalar_angle_l	subtalar_angle_r	tmt_angle_l	tmt_angle_r	mtp_angle_l	mtp_angle_r	lumbar_extension	lumbar_bending	lumbar_rotation	arm_flex_l	arm_add_l	arm_rot_l	arm_flex_r	arm_add_r	arm_rot_r	elbow_flex_l	elbow_flex_r	pro_sup_l	pro_sup_r	glut_med1_l/activation	glut_med2_l/activation	glut_med3_l/activation	glut_min1_l/activation	glut_min2_l/activation	glut_min3_l/activation	semimem_l/activation	semiten_l/activation	bifemlh_l/activation	bifemsh_l/activation	sar_l/activation	add_long_l/activation	add_brev_l/activation	add_mag1_l/activation	add_mag2_l/activation	add_mag3_l/activation	tfl_l/activation	pect_l/activation	grac_l/activation	glut_max1_l/activation	glut_max2_l/activation	glut_max3_l/activation	iliacus_l/activation	psoas_l/activation	quad_fem_l/activation	gem_l/activation	peri_l/activation	rect_fem_l/activation	vas_med_l/activation	vas_int_l/activation	vas_lat_l/activation	med_gas_l/activation	lat_gas_l/activation	soleus_l/activation	tib_post_l/activation	flex_dig_l/activation	flex_hal_l/activation	tib_ant_l/activation	per_brev_l/activation	per_long_l/activation	per_tert_l/activation	ext_dig_l/activation	ext_hal_l/activation	ercspn_l/activation	intobl_l/activation	extobl_l/activation	glut_med1_r/activation	glut_med2_r/activation	glut_med3_r/activation	glut_min1_r/activation	glut_min2_r/activation	glut_min3_r/activation	semimem_r/activation	semiten_r/activation	bifemlh_r/activation	bifemsh_r/activation	sar_r/activation	add_long_r/activation	add_brev_r/activation	add_mag1_r/activation	add_mag2_r/activation	add_mag3_r/activation	tfl_r/activation	pect_r/activation	grac_r/activation	glut_max1_r/activation	glut_max2_r/activation	glut_max3_r/activation	iliacus_r/activation	psoas_r/activation	quad_fem_r/activation	gem_r/activation	peri_r/activation	rect_fem_r/activation	vas_med_r/activation	vas_int_r/activation	vas_lat_r/activation	med_gas_r/activation	lat_gas_r/activation	soleus_r/activation	tib_post_r/activation	flex_dig_r/activation	flex_hal_r/activation	tib_ant_r/activation	per_brev_r/activation	per_long_r/activation	per_tert_r/activation	ext_dig_r/activation	ext_hal_r/activation	ercspn_r/activation	intobl_r/activation	extobl_r/activation	
          0.60833974	         -2.92840339	          1.14336847	         -7.90597561	          0.76042467	          0.85749933	          0.00215259	         33.03079717	          0.46414846	         -1.15434946	        -15.79450589	         -2.14774707	          8.38577859	        -15.76037275	        -15.21690140	          8.40301371	         -6.12198654	          1.70684969	         16.34677259	          0.02574665	          0.51209469	         -0.09376214	         28.24070911	         -0.57991636	          1.47866263	          2.89526780	        -10.03229495	        -13.47854578	          8.98097224	          4.29676086	        -13.48254821	         17.80704916	         17.16975528	         40.72081706	         86.51662706	         86.51662706	          0.05000795	          0.05001013	          0.06013569	          0.05000305	          0.05000373	          0.05000570	          0.16833231	          0.06014045	          0.16318227	          0.05192706	          0.05000249	          0.06799322	          0.11532855	          0.13976486	          0.12931075	          0.10799652	          0.06012063	          0.05001593	          0.06014804	          0.06013697	          0.06013898	          0.09011198	          0.06496021	          0.06985600	          0.18031690	          0.05000154	          0.05000983	          0.05000459	          0.05000990	          0.05591663	          0.05001004	          0.06103775	          0.06014552	          0.05341151	          0.06013884	          0.06016345	          0.06165102	          0.45188301	          0.29986755	          0.20684263	          0.09717452	          0.46500272	          0.24633634	          0.05546618	          0.14840382	          0.12543152	          0.18380142	          0.09871910	          0.07283122	          0.22699391	          0.15048175	          0.10463921	          0.05000924	          0.05000114	          0.05000113	          0.05000221	          0.10548147	          0.05000076	          0.05000106	          0.05000146	          0.05000352	          0.05000322	          0.20848838	          0.05000305	          0.05000195	          0.05003149	          0.05001471	          0.05000518	          0.43337803	          0.62487813	          0.05000109	          0.05001489	          0.07683765	          0.24516994	          0.11698210	          0.12161672	          0.08792311	          0.16880510	          0.25395940	          0.06174368	          0.17041574	          0.19530934	          0.22114263	          0.05000004	          0.37113857	          0.34930380	          0.05000044	          0.05000027	          0.05000032	          0.05000006	          0.05000020	          0.05000015	
          0.62050653	         -2.92987838	          1.07014361	         -8.12205413	          0.77967572	          0.85626574	          0.00187952	         32.45014105	          0.69166701	         -0.95871586	        -16.15318197	         -2.38547335	          8.22124502	        -15.53901397	        -16.17637205	          7.98392253	         -8.86649818	          1.28485491	         16.95085658	          0.02617779	          0.35308976	         -0.07837246	         29.92383365	         -0.34617487	          1.34591742	          2.98962343	        -11.42840182	        -13.46560806	          8.82915688	          3.92523324	        -13.53004539	         18.10404853	         17.17042149	         41.94847014	         86.51662706	         86.51662706	          0.05000157	          0.05000485	          0.05000078	          0.06013946	          0.06013878	          0.05003790	          0.15137363	          0.05000171	          0.15005082	          0.05000169	          0.06013990	          0.08984218	          0.14309281	          0.11620311	          0.10751184	          0.12917765	          0.05000053	          0.07228940	          0.05000972	          0.05000116	          0.05000093	          0.17534844	          0.06917078	          0.05808026	          0.14991834	          0.22949506	          0.17518090	          0.07161801	          0.18575476	          0.17909802	          0.16048115	          0.05074731	          0.05000559	          0.05143744	          0.05000019	          0.05002088	          0.05125781	          0.62370621	          0.30077437	          0.17197161	          0.50150729	          0.56653491	          0.42113075	          0.05000099	          0.12338409	          0.10428471	          0.15281568	          0.08207627	          0.06055303	          0.18872544	          0.12511237	          0.08699843	          0.05000464	          0.05000075	          0.05000063	          0.05000262	          0.08770084	          0.10280674	          0.05000295	          0.05000242	          0.05000337	          0.05000114	          0.17333911	          0.07112532	          0.05003133	          0.05001010	          0.05000490	          0.05000220	          0.36031423	          0.54962466	          0.06513340	          0.05000662	          0.06388373	          0.20383612	          0.09726063	          0.10111379	          0.07310044	          0.14034581	          0.21114373	          0.05133417	          0.14168493	          0.16238185	          0.18385973	          0.05024148	          0.33142384	          0.31809752	          0.05000095	          0.23070068	          0.05000454	          0.05000023	          0.05000023	          0.05136024	
          0.63267333	         -2.92428362	          1.00188518	         -8.29988731	          0.79926507	          0.85484395	          0.00160558	         31.75978038	          0.93360236	         -0.70684350	        -16.31266156	         -2.59522071	          8.04203046	        -15.97665298	        -17.46456714	          7.29113476	        -11.71743961	          0.87856588	         17.53566449	          0.02426381	          0.07473022	         -0.04603056	         31.41517738	         -0.09061551	          1.19155715	          3.07191428	        -12.83477452	        -13.45626450	          8.71860214	          3.46208077	        -13.59177282	         18.33000911	         17.18163727	         43.15983919	         86.51662706	         86.51662706	          0.05000036	          0.05000187	          0.13562638	          0.05000073	          0.05000071	          0.05000135	          0.12585327	          0.05000113	          0.12475345	          0.05000040	          0.05000198	          0.07469616	          0.11896895	          0.26148550	          0.20499912	          0.13646061	          0.06014042	          0.06010526	          0.06010427	          0.12015216	          0.11436908	          0.14578667	          0.05750950	          0.06013922	          0.23142125	          0.19080405	          0.14564689	          0.06013974	          0.21962117	          0.22331516	          0.19993900	          0.05000018	          0.05000043	          0.05000005	          0.05000163	          0.05002149	          0.05000299	          0.57023634	          0.37645000	          0.20895250	          0.46614494	          0.53804329	          0.35013152	          0.05000003	          0.10258246	          0.08670309	          0.12705232	          0.06823940	          0.06014186	          0.15690827	          0.10401976	          0.07233181	          0.05001582	          0.05000133	          0.05000374	          0.05000038	          0.07291572	          0.18547171	          0.09164286	          0.23560885	          0.08702188	          0.10762570	          0.14411562	          0.05913594	          0.05000487	          0.06013057	          0.06014572	          0.06908071	          0.29956802	          0.45696272	          0.06496228	          0.06024927	          0.06014099	          0.16947087	          0.12585809	          0.12586003	          0.06082115	          0.11668454	          0.17554648	          0.05000006	          0.11779793	          0.13500567	          0.15286246	          0.23245565	          0.36654592	          0.30760888	          0.47546248	          0.37923470	          0.18069391	          0.06930333	          0.06013953	          0.06014014	
          0.64484012	         -2.91315731	          0.94656144	         -8.43516058	          0.81897135	          0.85325582	          0.00134590	         30.92173520	          1.15398199	         -0.42979587	        -16.25989481	         -2.77237748	          7.85859446	        -16.76771428	        -19.12642380	          6.77140184	        -14.41286741	          0.46184505	         18.06278004	         -0.01189554	         -0.16124519	         -0.19242133	         31.93959828	          0.16901134	          1.00964706	          3.13761809	        -14.19591855	        -13.46085846	          8.71753075	          2.93698498	        -13.65654562	         18.47399653	         17.15597408	         44.35171702	         86.51662706	         86.51662706	          0.25397781	          0.28621472	          0.36239641	          0.21744195	          0.17435140	          0.21227723	          0.10463566	          0.09030969	          0.10372553	          0.05038227	          0.05000352	          0.06210327	          0.09891194	          0.21740226	          0.20953097	          0.16274126	          0.05000159	          0.05001163	          0.05000968	          0.23805355	          0.19513077	          0.18600312	          0.05000036	          0.05000052	          0.19431286	          0.15863667	          0.25334480	          0.05000071	          0.18259519	          0.18566677	          0.16623144	          0.05000044	          0.05000081	          0.05000023	          0.05000011	          0.05002650	          0.05001236	          0.67355613	          0.34222888	          0.17373157	          0.70523363	          0.63035252	          0.44288535	          0.05681587	          0.08700189	          0.07208562	          0.22932352	          0.05673500	          0.05000251	          0.15110616	          0.08648335	          0.06013758	          0.05015859	          0.06013651	          0.06012512	          0.05056145	          0.06062447	          0.15420304	          0.20167676	          0.19588757	          0.07235307	          0.08948494	          0.11981902	          0.06415904	          0.05013609	          0.05000822	          0.05000903	          0.05743524	          0.24906319	          0.43721664	          0.05401033	          0.05009247	          0.05000194	          0.14089934	          0.10463947	          0.10464109	          0.05056723	          0.09701240	          0.14595067	          0.05000009	          0.09793811	          0.11224497	          0.12709114	          0.32847903	          0.37272287	          0.28680179	          0.68928598	          0.47754240	          0.29523103	          0.08264303	          0.05000048	          0.05000111	
